<?xml version="1.0" encoding="UTF-8"?><svg id="Layer_2" xmlns="http://www.w3.org/2000/svg" viewBox="0 0 506.42 507.66"><g id="Dark"><path d="M151.84,163.72L315.56,0l64.66,64.65-92.61,92.61h0l-73,73-2.48,2.48h0l-.25,.25c-3.67,3.67-9.62,3.67-13.29,0l-51.36-51.36c-3.67-3.67-3.67-9.62,0-13.29l4.61-4.61Zm29.88-56.24l51.36-51.36c3.67-3.67,3.67-9.62,0-13.29L190.25,0,125.59,64.65l42.83,42.83c3.67,3.67,9.63,3.67,13.29,0Zm-2.52,253.7c.83-.43,1.61-.99,2.3-1.69l51.36-51.36c3.67-3.67,3.67-9.62,0-13.29l-75.73-75.73-.1,.1L64.65,126.83,0,191.48l168.09,168.09c3.01,3.01,7.55,3.54,11.11,1.62Zm-123.08-87.22c-3.67-3.67-9.62-3.67-13.29,0L0,316.8l64.65,64.65,42.84-42.83c3.67-3.67,3.67-9.63,0-13.29l-51.36-51.36Zm303.58,65.46l.16-.16c3.67-3.67,3.67-9.62,0-13.29l-51.36-51.36c-3.67-3.67-9.62-3.67-13.29,0l-75.73,75.73h0l-92.66,92.67,64.65,64.65,168.09-168.08s.09-.1,.14-.15Zm-34.38,60.75l-51.36,51.36c-3.67,3.68-3.67,9.62,0,13.29l42.83,42.83,64.66-64.65-42.83-42.84c-3.67-3.67-9.63-3.67-13.29,0Zm124.97-167.1c3.67,3.67,9.62,3.67,13.29,0l42.83-42.83-64.65-64.65-42.83,42.83c-3.67,3.67-3.67,9.63,0,13.29l51.35,51.36Zm-37.44-11.24l-75.73-75.73c-3.67-3.67-9.63-3.67-13.29,0l-51.36,51.36c-3.67,3.67-3.67,9.62,0,13.29l.29,.29c.28,.37,.57,.73,.91,1.07l168.09,168.09,64.65-64.65-93.64-93.65,.08-.08Z" fill="#345c7e"/></g></svg>
