<?xml version="1.0" encoding="UTF-8"?><svg xmlns="http://www.w3.org/2000/svg" viewBox="0 0 1021.41 511.2"><g id="Dark"><g><path d="M198.84,233.25l-51.36-51.36c-3.67-3.67-3.67-9.62,0-13.29L315.56,.51l64.66,64.65L212.13,233.25c-3.67,3.67-9.62,3.67-13.29,0" fill="#0a202f"/><path d="M198.59,233.5l-51.36-51.36c-3.67-3.67-3.67-9.62,0-13.29l75.73-75.73,64.66,64.65-75.73,75.73c-3.67,3.67-9.62,3.67-13.29,0" fill="#0a202f"/><path d="M233.08,56.64l-51.36,51.36c-3.67,3.67-9.62,3.67-13.29,0l-42.83-42.83L190.25,.52l42.83,42.83c3.67,3.67,3.67,9.62,0,13.29" fill="#0a202f"/><path d="M232.74,308.72l-51.36,51.36c-3.67,3.67-9.62,3.67-13.29,0L0,191.99,64.65,127.34l168.09,168.09c3.67,3.68,3.67,9.62,0,13.29" fill="#0a202f"/><path d="M56.13,274.48l51.36,51.36c3.67,3.67,3.67,9.62,0,13.29l-42.84,42.83L0,317.31l42.83-42.83c3.67-3.67,9.62-3.67,13.29,0" fill="#0a202f"/><path d="M308.21,275.43l51.36,51.36c3.67,3.67,3.67,9.62,0,13.29l-168.09,168.08-64.65-64.65,168.08-168.09c3.68-3.67,9.62-3.67,13.29,0" fill="#0a202f"/><path d="M273.97,452.05l51.36-51.36c3.66-3.67,9.62-3.67,13.29,0l42.83,42.84-64.65,64.65-42.83-42.83c-3.67-3.67-3.67-9.62,0-13.29" fill="#0a202f"/><path d="M273.69,199.35l51.36-51.36c3.67-3.67,9.62-3.67,13.3,0l168.08,168.09-64.65,64.65-168.09-168.09c-3.67-3.67-3.67-9.62,0-13.29" fill="#0a202f"/><path d="M450.3,233.59l-51.36-51.36c-3.67-3.66-3.67-9.62,0-13.29l42.83-42.82,64.65,64.65-42.83,42.83c-3.67,3.67-9.62,3.67-13.29,0" fill="#0a202f"/><path d="M272.48,197.98l51.36-51.36c3.67-3.67,9.62-3.67,13.29,0l75.73,75.73-64.65,64.66-75.73-75.73c-3.67-3.67-3.67-9.62,0-13.29" fill="#0a202f"/><path d="M308.51,275.12l51.36,51.36c3.67,3.67,3.67,9.62,0,13.29l-75.73,75.73-64.66-64.65,75.73-75.73c3.67-3.67,9.62-3.67,13.29,0" fill="#0a202f"/><path d="M232.86,308.65l-51.36,51.36c-3.67,3.67-9.62,3.67-13.29,0l-75.73-75.73,64.65-64.66,75.73,75.73c3.67,3.67,3.67,9.62,0,13.29" fill="#0a202f"/></g></g><g id="Light"><rect id="BG" x="510.2" width="511.2" height="511.2" fill="#0a202f"/><g id="Logo"><path d="M712.04,233.25l-51.36-51.36c-3.67-3.67-3.67-9.62,0-13.29L828.77,.51l64.66,64.65-168.09,168.08c-3.67,3.67-9.62,3.67-13.29,0" fill="#fff"/><path d="M711.79,233.5l-51.36-51.36c-3.67-3.67-3.67-9.62,0-13.29l75.73-75.73,64.66,64.65-75.73,75.73c-3.67,3.67-9.62,3.67-13.29,0" fill="#fff"/><path d="M746.28,56.64l-51.36,51.36c-3.67,3.67-9.62,3.67-13.29,0l-42.83-42.83L703.45,.52l42.83,42.83c3.67,3.67,3.67,9.62,0,13.29" fill="#fff"/><path d="M745.95,308.72l-51.36,51.36c-3.67,3.67-9.62,3.67-13.29,0l-168.09-168.09,64.65-64.65,168.09,168.09c3.67,3.68,3.67,9.62,0,13.29" fill="#fff"/><path d="M569.33,274.48l51.36,51.36c3.67,3.67,3.67,9.62,0,13.29l-42.84,42.83-64.65-64.65,42.83-42.83c3.67-3.67,9.62-3.67,13.29,0" fill="#fff"/><path d="M821.41,275.43l51.36,51.36c3.67,3.67,3.67,9.62,0,13.29l-168.09,168.08-64.65-64.65,168.08-168.09c3.68-3.67,9.62-3.67,13.29,0" fill="#fff"/><path d="M787.17,452.05l51.36-51.36c3.66-3.67,9.62-3.67,13.29,0l42.83,42.84-64.65,64.65-42.83-42.83c-3.67-3.67-3.67-9.62,0-13.29" fill="#fff"/><path d="M786.89,199.35l51.36-51.36c3.67-3.67,9.62-3.67,13.3,0l168.08,168.09-64.65,64.65-168.09-168.09c-3.67-3.67-3.67-9.62,0-13.29" fill="#fff"/><path d="M963.5,233.59l-51.36-51.36c-3.67-3.66-3.67-9.62,0-13.29l42.83-42.82,64.65,64.65-42.83,42.83c-3.67,3.67-9.62,3.67-13.29,0" fill="#fff"/><path d="M785.69,197.98l51.36-51.36c3.67-3.67,9.62-3.67,13.29,0l75.73,75.73-64.65,64.66-75.73-75.73c-3.67-3.67-3.67-9.62,0-13.29" fill="#fff"/><path d="M821.71,275.12l51.36,51.36c3.67,3.67,3.67,9.62,0,13.29l-75.73,75.73-64.66-64.65,75.73-75.73c3.67-3.67,9.62-3.67,13.29,0" fill="#fff"/><path d="M746.07,308.65l-51.36,51.36c-3.67,3.67-9.62,3.67-13.29,0l-75.73-75.73,64.65-64.66,75.73,75.73c3.67,3.67,3.67,9.62,0,13.29" fill="#fff"/></g></g></svg>